<?xml version="1.0" encoding="utf-8"?>
<svg viewBox="82.561 187.029 19.505 19.58" xmlns="http://www.w3.org/2000/svg">
  <g id="Icon" transform="matrix(1, 0, 0, 1, 80.337166, 184.821259)">
    <path d="M21.75,7c0,-1.26 -0.5,-2.468 -1.391,-3.359c-0.891,-0.891 -2.099,-1.391 -3.359,-1.391l-10,0c-1.26,-0 -2.468,0.5 -3.359,1.391c-0.891,0.891 -1.391,2.099 -1.391,3.359l0,10c-0,1.26 0.5,2.468 1.391,3.359c0.891,0.891 2.099,1.391 3.359,1.391l10,0c1.26,0 2.468,-0.5 3.359,-1.391c0.891,-0.891 1.391,-2.099 1.391,-3.359l0,-10Zm-1.5,0l0,10c0,0.862 -0.342,1.689 -0.952,2.298c-0.609,0.61 -1.436,0.952 -2.298,0.952l-10,0c-0.862,0 -1.689,-0.342 -2.298,-0.952c-0.61,-0.609 -0.952,-1.436 -0.952,-2.298l0,-10c-0,-0.862 0.342,-1.689 0.952,-2.298c0.609,-0.61 1.436,-0.952 2.298,-0.952l10,0c0.862,-0 1.689,0.342 2.298,0.952c0.61,0.609 0.952,1.436 0.952,2.298Z" style="fill: rgb(207, 207, 207);"/>
    <path d="M15.5,6.25c-1.242,0 -2.25,1.008 -2.25,2.25c0,1.242 1.008,2.25 2.25,2.25c1.242,0 2.25,-1.008 2.25,-2.25c0,-1.242 -1.008,-2.25 -2.25,-2.25Zm0,1.5c0.414,0 0.75,0.336 0.75,0.75c0,0.414 -0.336,0.75 -0.75,0.75c-0.414,0 -0.75,-0.336 -0.75,-0.75c0,-0.414 0.336,-0.75 0.75,-0.75Z" style="fill: rgb(207, 207, 207);"/>
    <path d="M6.117,16.427c-0,-0 1.428,-2.064 2.676,-3.866c0.242,-0.349 0.648,-0.548 1.072,-0.526c0.425,0.023 0.807,0.264 1.011,0.637c0.189,0.347 0.377,0.692 0.553,1.014c0.332,0.609 0.918,1.041 1.598,1.177c0.681,0.137 1.388,-0.034 1.93,-0.468c0,-0 0.001,-0.001 0.001,-0.001c0.277,-0.221 0.676,-0.199 0.927,0.051c0.882,0.883 2.085,2.085 2.085,2.085c0.292,0.293 0.768,0.293 1.06,0c0.293,-0.292 0.293,-0.768 0,-1.06c0,-0 -1.202,-1.203 -2.085,-2.085c-0.791,-0.791 -2.05,-0.861 -2.924,-0.162c-0,0 -0.001,0 -0.001,0.001c-0.196,0.156 -0.451,0.218 -0.697,0.169c-0.246,-0.05 -0.457,-0.205 -0.577,-0.425c-0.176,-0.322 -0.364,-0.668 -0.553,-1.014c-0.453,-0.83 -1.304,-1.366 -2.248,-1.417c-0.944,-0.05 -1.847,0.393 -2.386,1.171c-1.247,1.801 -2.676,3.865 -2.676,3.865c-0.235,0.34 -0.15,0.808 0.19,1.044c0.34,0.235 0.808,0.15 1.044,-0.19Z" style="fill: rgb(207, 207, 207);"/>
  </g>
</svg>