<svg width="12" height="12" viewBox="0 0 12 12" fill="none" xmlns="http://www.w3.org/2000/svg">
<path fill-rule="evenodd" clip-rule="evenodd" d="M6.99951 1C6.99951 0.447715 6.5518 0 5.99951 0C5.44723 0 4.99951 0.447715 4.99951 1V5H0.999512C0.447227 5 -0.000488281 5.44772 -0.000488281 6C-0.000488281 6.55228 0.447227 7 0.999511 7H4.99951L4.99951 11C4.99951 11.5523 5.44723 12 5.99951 12C6.5518 12 6.99951 11.5523 6.99951 11L6.99951 7L10.9995 7C11.5518 7 11.9995 6.55228 11.9995 6C11.9995 5.44772 11.5518 5 10.9995 5L6.99951 5V1Z" fill="#130E4A" fill-opacity="0.7"/>
</svg>
