<svg width="11" height="12" viewBox="0 0 11 12" fill="none" xmlns="http://www.w3.org/2000/svg">
<path d="M10 5.16667H2.84154L5.59154 2.425C5.74846 2.26808 5.83661 2.05525 5.83661 1.83333C5.83661 1.61141 5.74846 1.39859 5.59154 1.24167C5.43462 1.08475 5.22179 0.99659 4.99987 0.99659C4.77795 0.99659 4.56513 1.08475 4.40821 1.24167L0.24154 5.40833C0.165672 5.48759 0.106202 5.58104 0.0665396 5.68333C-0.0168088 5.88622 -0.0168088 6.11378 0.0665396 6.31667C0.106202 6.41896 0.165672 6.51241 0.24154 6.59167L4.40821 10.7583C4.48567 10.8364 4.57784 10.8984 4.67939 10.9407C4.78094 10.983 4.88986 11.0048 4.99987 11.0048C5.10988 11.0048 5.2188 10.983 5.32035 10.9407C5.4219 10.8984 5.51407 10.8364 5.59154 10.7583C5.66965 10.6809 5.73164 10.5887 5.77395 10.4871C5.81626 10.3856 5.83804 10.2767 5.83804 10.1667C5.83804 10.0567 5.81626 9.94773 5.77395 9.84618C5.73164 9.74463 5.66965 9.65247 5.59154 9.575L2.84154 6.83333H10C10.221 6.83333 10.433 6.74553 10.5893 6.58925C10.7455 6.43297 10.8333 6.22101 10.8333 6C10.8333 5.77899 10.7455 5.56702 10.5893 5.41074C10.433 5.25446 10.221 5.16667 10 5.16667Z" fill="#130E4A" fill-opacity="0.7"/>
</svg>
