<svg width="29" height="29" viewBox="0 0 29 29" fill="none" xmlns="http://www.w3.org/2000/svg">
<path d="M23.3333 16.3334C22.9797 16.3334 22.6405 16.4739 22.3905 16.724C22.1404 16.974 22 17.3132 22 17.6668V18.1734L20.0266 16.2001C19.3299 15.5088 18.3881 15.1209 17.4066 15.1209C16.4251 15.1209 15.4834 15.5088 14.7866 16.2001L13.8533 17.1334L10.5466 13.8268C9.84012 13.1542 8.90205 12.7792 7.92663 12.7792C6.9512 12.7792 6.01313 13.1542 5.30663 13.8268L3.33329 15.8001V8.33344C3.33329 7.97982 3.47377 7.64068 3.72382 7.39063C3.97387 7.14058 4.313 7.00011 4.66663 7.00011H14C14.3536 7.00011 14.6927 6.85963 14.9428 6.60958C15.1928 6.35953 15.3333 6.02039 15.3333 5.66677C15.3333 5.31315 15.1928 4.97401 14.9428 4.72396C14.6927 4.47392 14.3536 4.33344 14 4.33344H4.66663C3.60576 4.33344 2.58834 4.75487 1.8382 5.50501C1.08805 6.25516 0.666626 7.27257 0.666626 8.33344V24.3334C0.666626 25.3943 1.08805 26.4117 1.8382 27.1619C2.58834 27.912 3.60576 28.3334 4.66663 28.3334H20.6666C21.7275 28.3334 22.7449 27.912 23.4951 27.1619C24.2452 26.4117 24.6666 25.3943 24.6666 24.3334V17.6668C24.6666 17.3132 24.5261 16.974 24.2761 16.724C24.0261 16.4739 23.6869 16.3334 23.3333 16.3334ZM4.66663 25.6668C4.313 25.6668 3.97387 25.5263 3.72382 25.2763C3.47377 25.0262 3.33329 24.6871 3.33329 24.3334V19.5734L7.19996 15.7068C7.39584 15.5201 7.65604 15.416 7.92663 15.416C8.19721 15.416 8.45741 15.5201 8.65329 15.7068L12.88 19.9334L18.6133 25.6668H4.66663ZM22 24.3334C21.998 24.5887 21.9139 24.8365 21.76 25.0401L15.7466 19.0001L16.68 18.0668C16.7755 17.9692 16.8896 17.8917 17.0156 17.8388C17.1415 17.7859 17.2767 17.7586 17.4133 17.7586C17.5499 17.7586 17.6851 17.7859 17.811 17.8388C17.9369 17.8917 18.051 17.9692 18.1466 18.0668L22 21.9468V24.3334ZM28.28 4.72011L24.28 0.720106C24.1532 0.598718 24.0036 0.503565 23.84 0.440106C23.5153 0.306749 23.1512 0.306749 22.8266 0.440106C22.663 0.503565 22.5134 0.598718 22.3866 0.720106L18.3866 4.72011C18.2623 4.84442 18.1637 4.99201 18.0964 5.15444C18.0291 5.31687 17.9945 5.49096 17.9945 5.66677C17.9945 6.02184 18.1356 6.36237 18.3866 6.61344C18.6377 6.86451 18.9782 7.00556 19.3333 7.00556C19.6884 7.00556 20.0289 6.86451 20.28 6.61344L22 4.88011V12.3334C22 12.6871 22.1404 13.0262 22.3905 13.2762C22.6405 13.5263 22.9797 13.6668 23.3333 13.6668C23.6869 13.6668 24.0261 13.5263 24.2761 13.2762C24.5261 13.0262 24.6666 12.6871 24.6666 12.3334V4.88011L26.3866 6.61344C26.5106 6.73841 26.658 6.8376 26.8205 6.90529C26.983 6.97299 27.1573 7.00784 27.3333 7.00784C27.5093 7.00784 27.6836 6.97299 27.8461 6.90529C28.0085 6.8376 28.156 6.73841 28.28 6.61344C28.4049 6.48949 28.5041 6.34202 28.5718 6.17954C28.6395 6.01706 28.6744 5.84279 28.6744 5.66677C28.6744 5.49076 28.6395 5.31648 28.5718 5.154C28.5041 4.99152 28.4049 4.84406 28.28 4.72011Z" fill="#130E4A" fill-opacity="0.7"/>
</svg>
