<svg width="14" height="8" viewBox="0 0 14 8" fill="none" xmlns="http://www.w3.org/2000/svg">
<path d="M12.8333 0.698267C12.6147 0.480974 12.319 0.359009 12.0108 0.359009C11.7026 0.359009 11.4069 0.480974 11.1883 0.698267L6.99998 4.82827L2.86998 0.698267C2.65139 0.480974 2.3557 0.359009 2.04748 0.359009C1.73926 0.359009 1.44357 0.480974 1.22498 0.698267C1.11563 0.806724 1.02884 0.935758 0.969607 1.07793C0.910377 1.2201 0.879883 1.37259 0.879883 1.5266C0.879883 1.68061 0.910377 1.8331 0.969607 1.97527C1.02884 2.11744 1.11563 2.24648 1.22498 2.35493L6.17165 7.3016C6.2801 7.41095 6.40914 7.49774 6.55131 7.55697C6.69348 7.6162 6.84597 7.6467 6.99998 7.6467C7.154 7.6467 7.30648 7.6162 7.44865 7.55697C7.59082 7.49774 7.71986 7.41095 7.82831 7.3016L12.8333 2.35493C12.9427 2.24648 13.0295 2.11744 13.0887 1.97527C13.1479 1.8331 13.1784 1.68061 13.1784 1.5266C13.1784 1.37259 13.1479 1.2201 13.0887 1.07793C13.0295 0.935758 12.9427 0.806724 12.8333 0.698267Z" fill="#130E4A" fill-opacity="0.7"/>
</svg>
