<svg width="29" height="29" viewBox="0 0 29 29" fill="none" xmlns="http://www.w3.org/2000/svg">
<path d="M23.3334 16.3333C22.9798 16.3333 22.6407 16.4738 22.3906 16.7238C22.1406 16.9739 22.0001 17.313 22.0001 17.6667V18.1733L20.0267 16.2C19.33 15.5087 18.3882 15.1208 17.4067 15.1208C16.4252 15.1208 15.4835 15.5087 14.7867 16.2L13.8534 17.1333L10.5467 13.8267C9.84024 13.1541 8.90217 12.779 7.92675 12.779C6.95133 12.779 6.01326 13.1541 5.30675 13.8267L3.33341 15.8V8.33332C3.33341 7.97969 3.47389 7.64056 3.72394 7.39051C3.97399 7.14046 4.31313 6.99998 4.66675 6.99998H14.0001C14.3537 6.99998 14.6928 6.85951 14.9429 6.60946C15.1929 6.35941 15.3334 6.02027 15.3334 5.66665C15.3334 5.31303 15.1929 4.97389 14.9429 4.72384C14.6928 4.47379 14.3537 4.33332 14.0001 4.33332H4.66675C3.60588 4.33332 2.58847 4.75474 1.83832 5.50489C1.08818 6.25504 0.666748 7.27245 0.666748 8.33332V24.3333C0.666748 25.3942 1.08818 26.4116 1.83832 27.1617C2.58847 27.9119 3.60588 28.3333 4.66675 28.3333H20.6667C21.7276 28.3333 22.745 27.9119 23.4952 27.1617C24.2453 26.4116 24.6667 25.3942 24.6667 24.3333V17.6667C24.6667 17.313 24.5263 16.9739 24.2762 16.7238C24.0262 16.4738 23.687 16.3333 23.3334 16.3333ZM4.66675 25.6667C4.31313 25.6667 3.97399 25.5262 3.72394 25.2761C3.47389 25.0261 3.33341 24.6869 3.33341 24.3333V19.5733L7.20008 15.7066C7.39596 15.52 7.65617 15.4159 7.92675 15.4159C8.19733 15.4159 8.45753 15.52 8.65341 15.7066L12.8801 19.9333L18.6134 25.6667H4.66675ZM22.0001 24.3333C21.9982 24.5886 21.914 24.8364 21.7601 25.04L15.7467 19L16.6801 18.0667C16.7757 17.9691 16.8898 17.8916 17.0157 17.8387C17.1416 17.7858 17.2768 17.7585 17.4134 17.7585C17.55 17.7585 17.6852 17.7858 17.8111 17.8387C17.9371 17.8916 18.0512 17.9691 18.1467 18.0667L22.0001 21.9467V24.3333ZM28.2801 4.71998L24.2801 0.719984C24.1533 0.598596 24.0037 0.503443 23.8401 0.439984C23.5155 0.306626 23.1514 0.306626 22.8267 0.439984C22.6631 0.503443 22.5136 0.598596 22.3867 0.719984L18.3867 4.71998C18.2624 4.8443 18.1638 4.99189 18.0965 5.15432C18.0293 5.31675 17.9946 5.49084 17.9946 5.66665C17.9946 6.02172 18.1357 6.36225 18.3867 6.61332C18.6378 6.86439 18.9783 7.00544 19.3334 7.00544C19.6885 7.00544 20.029 6.86439 20.2801 6.61332L22.0001 4.87998V12.3333C22.0001 12.6869 22.1406 13.0261 22.3906 13.2761C22.6407 13.5262 22.9798 13.6667 23.3334 13.6667C23.687 13.6667 24.0262 13.5262 24.2762 13.2761C24.5263 13.0261 24.6667 12.6869 24.6667 12.3333V4.87998L26.3867 6.61332C26.5107 6.73829 26.6582 6.83748 26.8206 6.90517C26.9831 6.97286 27.1574 7.00771 27.3334 7.00771C27.5094 7.00771 27.6837 6.97286 27.8462 6.90517C28.0087 6.83748 28.1561 6.73829 28.2801 6.61332C28.4051 6.48937 28.5042 6.3419 28.5719 6.17942C28.6396 6.01694 28.6745 5.84267 28.6745 5.66665C28.6745 5.49063 28.6396 5.31636 28.5719 5.15388C28.5042 4.9914 28.4051 4.84393 28.2801 4.71998Z" fill="#2D55FB"/>
</svg>
