<svg width="18" height="18" viewBox="0 0 18 18" fill="none" xmlns="http://www.w3.org/2000/svg">
<path d="M17.3327 5.03318C17.3333 4.92351 17.3123 4.81479 17.2708 4.71326C17.2294 4.61173 17.1683 4.51938 17.091 4.44152L13.5577 0.908184C13.4798 0.83095 13.3875 0.769846 13.286 0.728375C13.1844 0.686905 13.0757 0.665884 12.966 0.666518C12.8564 0.665884 12.7476 0.686905 12.6461 0.728375C12.5446 0.769846 12.4522 0.83095 12.3744 0.908184L10.016 3.26652L0.907696 12.3749C0.830462 12.4527 0.769357 12.5451 0.727887 12.6466C0.686416 12.7481 0.665395 12.8568 0.66603 12.9665V16.4999C0.66603 16.7209 0.753827 16.9328 0.910107 17.0891C1.06639 17.2454 1.27835 17.3332 1.49936 17.3332H5.0327C5.1493 17.3395 5.26594 17.3213 5.37505 17.2797C5.48415 17.238 5.58329 17.1739 5.66603 17.0915L14.7244 7.98318L17.091 5.66652C17.1671 5.58575 17.2291 5.49279 17.2744 5.39152C17.2824 5.32509 17.2824 5.25794 17.2744 5.19152C17.2783 5.15273 17.2783 5.11364 17.2744 5.07485L17.3327 5.03318ZM4.69103 15.6665H2.3327V13.3082L10.6077 5.03318L12.966 7.39152L4.69103 15.6665ZM14.141 6.21652L11.7827 3.85818L12.966 2.68318L15.316 5.03318L14.141 6.21652Z" fill="#130E4A" fill-opacity="0.7"/>
</svg>
