<svg width="14" height="15" viewBox="0 0 14 15" fill="none" xmlns="http://www.w3.org/2000/svg">
<path d="M2.17334 6.55998C2.35016 6.58297 2.52886 6.53478 2.67013 6.426C2.81141 6.31723 2.90369 6.1568 2.92668 5.97998C2.94966 5.80317 2.90147 5.62447 2.7927 5.4832C2.68393 5.34192 2.52349 5.24964 2.34668 5.22665L1.17334 4.93332C1.0878 4.90709 0.997857 4.89836 0.908867 4.90763C0.819877 4.9169 0.733664 4.94399 0.655364 4.98728C0.577064 5.03057 0.50828 5.08918 0.453109 5.15962C0.397938 5.23006 0.357511 5.31088 0.334234 5.39727C0.310958 5.48366 0.30531 5.57385 0.317625 5.66247C0.329941 5.75109 0.35997 5.83633 0.405921 5.9131C0.451872 5.98987 0.512807 6.0566 0.585094 6.10933C0.65738 6.16205 0.73954 6.19968 0.826678 6.21998L2.00001 6.53332C2.05586 6.55196 2.11447 6.56097 2.17334 6.55998ZM4.74668 2.83332C4.78575 2.97876 4.8729 3.10669 4.99396 3.19627C5.11502 3.28585 5.26284 3.33181 5.41334 3.32665C5.47076 3.33587 5.52927 3.33587 5.58668 3.32665C5.75589 3.27984 5.8998 3.16817 5.98717 3.0159C6.07455 2.86362 6.09832 2.68302 6.05334 2.51332L5.74001 1.33998C5.71971 1.25285 5.68208 1.17069 5.62935 1.0984C5.57663 1.02611 5.50989 0.965178 5.43312 0.919227C5.35635 0.873275 5.27112 0.843247 5.1825 0.830931C5.09388 0.818615 5.00369 0.824264 4.9173 0.84754C4.83091 0.870816 4.75009 0.911244 4.67965 0.966415C4.60921 1.02159 4.5506 1.09037 4.50731 1.16867C4.46402 1.24697 4.43693 1.33318 4.42766 1.42217C4.41838 1.51116 4.42712 1.60111 4.45335 1.68665L4.74668 2.83332ZM7.96668 9.49998C7.9044 9.43443 7.82943 9.38222 7.74634 9.34655C7.66325 9.31088 7.57377 9.29248 7.48335 9.29248C7.39292 9.29248 7.30344 9.31088 7.22035 9.34655C7.13726 9.38222 7.06229 9.43443 7.00001 9.49998L4.66668 11.8733C4.39233 12.1365 4.02686 12.2835 3.64668 12.2835C3.26649 12.2835 2.90102 12.1365 2.62668 11.8733C2.49163 11.74 2.3844 11.5812 2.31121 11.4061C2.23803 11.231 2.20034 11.0431 2.20034 10.8533C2.20034 10.6635 2.23803 10.4757 2.31121 10.3006C2.3844 10.1255 2.49163 9.96665 2.62668 9.83332L5.00001 7.49998C5.0698 7.44022 5.12648 7.36667 5.1665 7.28396C5.20651 7.20125 5.229 7.11117 5.23254 7.01935C5.23609 6.92754 5.22062 6.83599 5.1871 6.75043C5.15359 6.66489 5.10275 6.58719 5.03778 6.52222C4.97281 6.45725 4.89511 6.40641 4.80956 6.37289C4.72401 6.33938 4.63246 6.3239 4.54064 6.32745C4.44883 6.331 4.35874 6.35348 4.27603 6.3935C4.19332 6.43352 4.11978 6.4902 4.06001 6.55998L1.66668 8.88665C1.40754 9.14579 1.20197 9.45344 1.06173 9.79202C0.921481 10.1306 0.849296 10.4935 0.849296 10.86C0.849296 11.2265 0.921481 11.5894 1.06173 11.9279C1.20197 12.2665 1.40754 12.5742 1.66668 12.8333C1.92582 13.0925 2.23347 13.298 2.57205 13.4383C2.91064 13.5785 3.27353 13.6507 3.64001 13.6507C4.00649 13.6507 4.36939 13.5785 4.70797 13.4383C5.04656 13.298 5.3542 13.0925 5.61335 12.8333L7.96668 10.48C8.03435 10.4176 8.08835 10.3418 8.12529 10.2575C8.16223 10.1731 8.1813 10.0821 8.1813 9.98998C8.1813 9.89792 8.16223 9.80685 8.12529 9.72251C8.08835 9.63818 8.03435 9.56241 7.96668 9.49998ZM2.45334 3.89332C2.57752 4.01648 2.74512 4.08591 2.92001 4.08665C3.00775 4.08716 3.09472 4.07034 3.17595 4.03716C3.25717 4.00399 3.33105 3.9551 3.39334 3.89332C3.51751 3.76841 3.58721 3.59944 3.58721 3.42332C3.58721 3.24719 3.51751 3.07823 3.39334 2.95332L2.53334 2.09332C2.40581 1.9841 2.24176 1.92703 2.07398 1.93351C1.90619 1.93999 1.74703 2.00955 1.6283 2.12827C1.50957 2.247 1.44002 2.40616 1.43354 2.57395C1.42706 2.74173 1.48413 2.90578 1.59334 3.03332L2.45334 3.89332ZM13.1733 8.77998L12 8.46665C11.9131 8.4366 11.8208 8.42486 11.7291 8.43219C11.6374 8.43952 11.5482 8.46575 11.4671 8.50923C11.3861 8.55271 11.3149 8.6125 11.258 8.68483C11.2012 8.75717 11.1599 8.84049 11.1369 8.92955C11.1138 9.01861 11.1094 9.11147 11.124 9.20231C11.1385 9.29315 11.1717 9.37999 11.2215 9.45737C11.2713 9.53474 11.3365 9.60098 11.4131 9.65191C11.4897 9.70285 11.5761 9.73737 11.6667 9.75332L12.84 10.0667H13.0133C13.1902 10.0896 13.3689 10.0414 13.5101 9.93267C13.6514 9.8239 13.7437 9.66346 13.7667 9.48665C13.7897 9.30984 13.7415 9.13114 13.6327 8.98986C13.5239 8.84858 13.3635 8.7563 13.1867 8.73332L13.1733 8.77998ZM9.25335 12.1667C9.2302 12.0821 9.19062 12.003 9.13687 11.9338C9.08312 11.8646 9.01625 11.8067 8.94009 11.7633C8.86393 11.72 8.77998 11.6921 8.69302 11.6812C8.60607 11.6703 8.51783 11.6767 8.43334 11.7C8.26414 11.7468 8.12022 11.8585 8.03285 12.0107C7.94548 12.163 7.9217 12.3436 7.96668 12.5133L8.28001 13.6867C8.31908 13.8321 8.40624 13.96 8.52729 14.0496C8.64835 14.1392 8.79617 14.1851 8.94668 14.18C9.00427 14.1865 9.06242 14.1865 9.12001 14.18C9.20513 14.1576 9.28497 14.1185 9.35491 14.065C9.42485 14.0116 9.48352 13.9448 9.52753 13.8686C9.57153 13.7924 9.60001 13.7082 9.6113 13.6209C9.6226 13.5336 9.6165 13.4449 9.59335 13.36L9.25335 12.1667ZM11.5467 11.12C11.4191 11.0108 11.2551 10.9537 11.0873 10.9602C10.9195 10.9667 10.7604 11.0362 10.6416 11.1549C10.5229 11.2737 10.4534 11.4328 10.4469 11.6006C10.4404 11.7684 10.4975 11.9324 10.6067 12.06L11.4667 12.92C11.5916 13.0442 11.7606 13.1138 11.9367 13.1138C12.1128 13.1138 12.2818 13.0442 12.4067 12.92C12.5308 12.7951 12.6005 12.6261 12.6005 12.45C12.6005 12.2739 12.5308 12.1049 12.4067 11.98L11.5467 11.12ZM13.1333 4.16665C13.1437 3.61228 12.9877 3.06752 12.6853 2.60272C12.383 2.13791 11.9483 1.7744 11.4373 1.5591C10.9264 1.34381 10.3626 1.28662 9.81882 1.39491C9.27503 1.50321 8.77618 1.77203 8.38668 2.16665L6.03335 4.53998C5.97031 4.60346 5.9204 4.67872 5.88645 4.76149C5.8525 4.84425 5.83519 4.93289 5.8355 5.02234C5.83581 5.11179 5.85373 5.20031 5.88825 5.28284C5.92277 5.36536 5.97321 5.44028 6.03668 5.50332C6.10015 5.56635 6.17542 5.61627 6.25818 5.65021C6.34094 5.68416 6.42958 5.70147 6.51904 5.70116C6.60849 5.70085 6.69701 5.68293 6.77953 5.64841C6.86206 5.61389 6.93698 5.56346 7.00001 5.49998L9.33335 3.12665C9.60769 2.86344 9.97316 2.71648 10.3533 2.71648C10.7335 2.71648 11.099 2.86344 11.3733 3.12665C11.5084 3.25998 11.6156 3.4188 11.6888 3.59389C11.762 3.76899 11.7997 3.95688 11.7997 4.14665C11.7997 4.33643 11.762 4.52431 11.6888 4.69941C11.6156 4.8745 11.5084 5.03332 11.3733 5.16665L9.00001 7.49998C8.87584 7.62489 8.80615 7.79386 8.80615 7.96998C8.80615 8.14611 8.87584 8.31508 9.00001 8.43998C9.12492 8.56415 9.29389 8.63385 9.47001 8.63385C9.64614 8.63385 9.8151 8.56415 9.94001 8.43998L12.3333 6.11332C12.8436 5.59355 13.1307 4.89502 13.1333 4.16665Z" fill="white"/>
</svg>
