<svg width="12" height="11" viewBox="0 0 12 11" fill="none" xmlns="http://www.w3.org/2000/svg">
<path d="M11.9375 5.18288C11.8978 5.08068 11.8383 4.9873 11.7624 4.90811L7.59399 0.744875C7.51626 0.66724 7.42398 0.605657 7.32242 0.563641C7.22086 0.521625 7.11201 0.5 7.00208 0.5C6.78007 0.5 6.56715 0.588084 6.41017 0.744875C6.33244 0.822509 6.27077 0.914675 6.22871 1.01611C6.18664 1.11754 6.16499 1.22626 6.16499 1.33605C6.16499 1.55779 6.25318 1.77044 6.41017 1.92723L9.16131 4.66664H0.83368C0.612574 4.66664 0.400525 4.75437 0.244179 4.91052C0.087834 5.06667 0 5.27846 0 5.49929C0 5.72012 0.087834 5.93191 0.244179 6.08806C0.400525 6.24421 0.612574 6.33194 0.83368 6.33194H9.16131L6.41017 9.07135C6.33203 9.14875 6.27001 9.24084 6.22768 9.34231C6.18536 9.44377 6.16357 9.55261 6.16357 9.66253C6.16357 9.77244 6.18536 9.88128 6.22768 9.98274C6.27001 10.0842 6.33203 10.1763 6.41017 10.2537C6.48767 10.3317 6.57987 10.3937 6.68146 10.436C6.78306 10.4782 6.89202 10.5 7.00208 10.5C7.11213 10.5 7.2211 10.4782 7.32269 10.436C7.42428 10.3937 7.51649 10.3317 7.59399 10.2537L11.7624 6.09047C11.8383 6.01128 11.8978 5.9179 11.9375 5.8157C12.0208 5.61298 12.0208 5.3856 11.9375 5.18288Z" fill="white"/>
</svg>
