<svg width="16" height="16" viewBox="0 0 16 16" fill="none" xmlns="http://www.w3.org/2000/svg">
<path d="M12.6666 1.33334H3.33325C2.80282 1.33334 2.29411 1.54405 1.91904 1.91912C1.54397 2.2942 1.33325 2.8029 1.33325 3.33334V4.11334C1.33316 4.38863 1.3899 4.66098 1.49992 4.91334V4.95334C1.59411 5.16732 1.72751 5.36178 1.89325 5.52667L5.99992 9.60667V14C5.99969 14.1133 6.02834 14.2248 6.08317 14.3239C6.13799 14.4231 6.21718 14.5066 6.31325 14.5667C6.41935 14.6324 6.54177 14.6671 6.66658 14.6667C6.77095 14.666 6.8737 14.6409 6.96658 14.5933L9.63325 13.26C9.74319 13.2046 9.83565 13.1198 9.90037 13.0151C9.96509 12.9104 9.99955 12.7898 9.99992 12.6667V9.60667L14.0799 5.52667C14.2457 5.36178 14.3791 5.16732 14.4733 4.95334V4.91334C14.5925 4.66296 14.6583 4.39052 14.6666 4.11334V3.33334C14.6666 2.8029 14.4559 2.2942 14.0808 1.91912C13.7057 1.54405 13.197 1.33334 12.6666 1.33334ZM8.85992 8.86C8.79813 8.9223 8.74925 8.99617 8.71607 9.0774C8.68289 9.15862 8.66608 9.2456 8.66658 9.33334V12.2533L7.33325 12.92V9.33334C7.33376 9.2456 7.31694 9.15862 7.28377 9.0774C7.25059 8.99617 7.20171 8.9223 7.13992 8.86L3.60659 5.33334H12.3933L8.85992 8.86ZM13.3333 4H2.66659V3.33334C2.66659 3.15652 2.73682 2.98696 2.86185 2.86193C2.98687 2.73691 3.15644 2.66667 3.33325 2.66667H12.6666C12.8434 2.66667 13.013 2.73691 13.138 2.86193C13.263 2.98696 13.3333 3.15652 13.3333 3.33334V4Z" fill="#2D55FB"/>
</svg>
