<svg width="14" height="14" viewBox="0 0 14 14" fill="none" xmlns="http://www.w3.org/2000/svg">
<path d="M5.83332 10.2375L4.80082 11.2408C4.53008 11.5116 4.16287 11.6637 3.77999 11.6637C3.3971 11.6637 3.02989 11.5116 2.75915 11.2408C2.48841 10.9701 2.33631 10.6029 2.33631 10.22C2.33631 9.83712 2.48841 9.46991 2.75915 9.19917L5.40749 6.545C5.66743 6.28422 6.01767 6.13333 6.38574 6.12356C6.75382 6.11379 7.11158 6.24588 7.38499 6.4925L7.45499 6.55084C7.5656 6.65913 7.71471 6.71905 7.86951 6.71741C8.0243 6.71577 8.17211 6.6527 8.2804 6.54209C8.3887 6.43147 8.44862 6.28236 8.44698 6.12757C8.44534 5.97277 8.38227 5.82497 8.27165 5.71667C8.23873 5.6741 8.20369 5.63322 8.16665 5.59417C7.66869 5.16094 7.02468 4.93317 6.36507 4.95699C5.70545 4.98082 5.07956 5.25447 4.61415 5.7225L1.93082 8.37667C1.47486 8.87297 1.22826 9.52623 1.24253 10.2C1.25679 10.8738 1.53082 11.5161 2.00737 11.9926C2.48393 12.4692 3.12616 12.7432 3.79996 12.7575C4.47376 12.7717 5.12702 12.5251 5.62332 12.0692L6.63249 11.0833C6.73213 10.9746 6.78691 10.8322 6.78579 10.6848C6.78468 10.5373 6.72776 10.3957 6.62648 10.2886C6.52521 10.1814 6.3871 10.1165 6.23994 10.107C6.09278 10.0976 5.9475 10.1442 5.83332 10.2375ZM12.0692 1.93084C11.5784 1.44318 10.9147 1.16946 10.2229 1.16946C9.53109 1.16946 8.86736 1.44318 8.37665 1.93084L7.36749 2.91667C7.26784 3.02538 7.21307 3.16778 7.21418 3.31524C7.2153 3.4627 7.27222 3.60427 7.37349 3.71145C7.47476 3.81864 7.61287 3.8835 7.76003 3.89297C7.90719 3.90244 8.05247 3.85582 8.16665 3.7625L9.17582 2.75917C9.44656 2.48843 9.81377 2.33633 10.1967 2.33633C10.5795 2.33633 10.9467 2.48843 11.2175 2.75917C11.4882 3.02991 11.6403 3.39712 11.6403 3.78C11.6403 4.16289 11.4882 4.5301 11.2175 4.80084L8.56915 7.455C8.30921 7.71579 7.95897 7.86667 7.5909 7.87645C7.22282 7.88622 6.86506 7.75413 6.59165 7.5075L6.52165 7.44917C6.41104 7.34087 6.26193 7.28096 6.10713 7.2826C5.95234 7.28424 5.80453 7.3473 5.69624 7.45792C5.58794 7.56854 5.52802 7.71765 5.52966 7.87244C5.5313 8.02724 5.59437 8.17504 5.70499 8.28334C5.74736 8.32667 5.79215 8.36757 5.83915 8.40584C6.33771 8.83777 6.98145 9.06468 7.64066 9.04087C8.29987 9.01706 8.92556 8.74428 9.39165 8.2775L12.0458 5.62334C12.5366 5.13571 12.8145 4.47372 12.8189 3.7819C12.8233 3.09008 12.5537 2.42462 12.0692 1.93084Z" fill="#2D55FB"/>
</svg>
