<svg width="14" height="10" viewBox="0 0 14 10" fill="none" xmlns="http://www.w3.org/2000/svg">
<path d="M13.5999 3.43333C13.5603 3.33104 13.5008 3.23759 13.4249 3.15833L10.9249 0.658334C10.8472 0.580635 10.755 0.519001 10.6535 0.476951C10.5519 0.434901 10.4431 0.413258 10.3333 0.413258C10.1113 0.413258 9.89851 0.501414 9.74159 0.658334C9.66389 0.736033 9.60225 0.828275 9.5602 0.929793C9.51815 1.03131 9.49651 1.14012 9.49651 1.25C9.49651 1.47192 9.58467 1.68475 9.74159 1.84167L10.8249 2.91667H2.83325C2.17021 2.91667 1.53433 3.18006 1.06549 3.6489C0.596644 4.11774 0.333252 4.75363 0.333252 5.41667V8.75C0.333252 8.97101 0.421049 9.18298 0.57733 9.33926C0.73361 9.49554 0.945572 9.58333 1.16659 9.58333C1.3876 9.58333 1.59956 9.49554 1.75584 9.33926C1.91212 9.18298 1.99992 8.97101 1.99992 8.75V5.41667C1.99992 5.19565 2.08772 4.98369 2.244 4.82741C2.40028 4.67113 2.61224 4.58333 2.83325 4.58333H10.8249L9.74159 5.65833C9.66348 5.7358 9.60148 5.82797 9.55918 5.92952C9.51687 6.03107 9.49509 6.13999 9.49509 6.25C9.49509 6.36001 9.51687 6.46893 9.55918 6.57048C9.60148 6.67203 9.66348 6.7642 9.74159 6.84167C9.81905 6.91977 9.91122 6.98177 10.0128 7.02408C10.1143 7.06638 10.2232 7.08817 10.3333 7.08817C10.4433 7.08817 10.5522 7.06638 10.6537 7.02408C10.7553 6.98177 10.8474 6.91977 10.9249 6.84167L13.4249 4.34167C13.5008 4.26241 13.5603 4.16896 13.5999 4.06667C13.6833 3.86378 13.6833 3.63622 13.5999 3.43333Z" fill="#130E4A"/>
</svg>
