<svg width="12" height="12" viewBox="0 0 12 12" fill="none" xmlns="http://www.w3.org/2000/svg">
<path fill-rule="evenodd" clip-rule="evenodd" d="M6.99945 1C6.99945 0.447715 6.55174 0 5.99945 0C5.44717 0 4.99945 0.447715 4.99945 1V5H0.999451C0.447166 5 -0.000549316 5.44772 -0.000549316 6C-0.000549316 6.55228 0.447166 7 0.99945 7H4.99945L4.99945 11C4.99945 11.5523 5.44717 12 5.99945 12C6.55173 12 6.99945 11.5523 6.99945 11L6.99945 7L10.9995 7C11.5517 7 11.9995 6.55228 11.9995 6C11.9995 5.44772 11.5517 5 10.9995 5L6.99945 5V1Z" fill="#130E4A" fill-opacity="0.7"/>
</svg>
