<svg width="12" height="12" viewBox="0 0 12 12" fill="none" xmlns="http://www.w3.org/2000/svg">
<path fill-rule="evenodd" clip-rule="evenodd" d="M6.99944 1C6.99944 0.447715 6.55172 0 5.99944 0C5.44715 0 4.99944 0.447715 4.99944 1V5H0.999435C0.447151 5 -0.000564575 5.44772 -0.000564575 6C-0.000564575 6.55228 0.44715 7 0.999435 7H4.99943L4.99943 11C4.99943 11.5523 5.44715 12 5.99943 12C6.55172 12 6.99943 11.5523 6.99943 11L6.99943 7L10.9994 7C11.5517 7 11.9994 6.55228 11.9994 6C11.9994 5.44772 11.5517 5 10.9994 5L6.99944 5V1Z" fill="#2D55FB"/>
</svg>
