<svg width="12" height="12" viewBox="0 0 12 12" fill="none" xmlns="http://www.w3.org/2000/svg">
<path fill-rule="evenodd" clip-rule="evenodd" d="M6.99939 1C6.99939 0.447715 6.55167 0 5.99939 0C5.4471 0 4.99939 0.447715 4.99939 1V5H0.99939C0.447105 5 -0.000610352 5.44772 -0.000610352 6C-0.000610352 6.55228 0.447105 7 0.999389 7H4.99939L4.99939 11C4.99939 11.5523 5.4471 12 5.99939 12C6.55167 12 6.99939 11.5523 6.99939 11L6.99939 7L10.9994 7C11.5517 7 11.9994 6.55228 11.9994 6C11.9994 5.44772 11.5517 5 10.9994 5L6.99939 5V1Z" fill="white"/>
</svg>
