<svg width="14" height="10" viewBox="0 0 14 10" fill="none" xmlns="http://www.w3.org/2000/svg">
<path d="M11.1666 2.91667H3.17491L4.25825 1.84167C4.41517 1.68475 4.50332 1.47192 4.50332 1.25C4.50332 1.02808 4.41517 0.815254 4.25825 0.658334C4.10133 0.501414 3.8885 0.413258 3.66658 0.413258C3.44466 0.413258 3.23183 0.501414 3.07491 0.658334L0.574914 3.15833C0.499046 3.23759 0.439576 3.33104 0.399914 3.43333C0.316565 3.63622 0.316565 3.86378 0.399914 4.06667C0.439576 4.16896 0.499046 4.26241 0.574914 4.34167L3.07491 6.84167C3.15238 6.91977 3.24455 6.98177 3.3461 7.02408C3.44765 7.06638 3.55657 7.08817 3.66658 7.08817C3.77659 7.08817 3.88551 7.06638 3.98706 7.02408C4.08861 6.98177 4.18078 6.91977 4.25825 6.84167C4.33635 6.7642 4.39835 6.67203 4.44066 6.57048C4.48296 6.46893 4.50475 6.36001 4.50475 6.25C4.50475 6.13999 4.48296 6.03107 4.44066 5.92952C4.39835 5.82797 4.33635 5.7358 4.25825 5.65833L3.17491 4.58333H11.1666C11.3876 4.58333 11.5996 4.67113 11.7558 4.82741C11.9121 4.98369 11.9999 5.19565 11.9999 5.41667V8.75C11.9999 8.97101 12.0877 9.18298 12.244 9.33926C12.4003 9.49554 12.6122 9.58333 12.8332 9.58333C13.0543 9.58333 13.2662 9.49554 13.4225 9.33926C13.5788 9.18298 13.6666 8.97101 13.6666 8.75V5.41667C13.6666 4.75363 13.4032 4.11774 12.9343 3.6489C12.4655 3.18006 11.8296 2.91667 11.1666 2.91667Z" fill="#130E4A"/>
</svg>
