<svg width="11" height="11" viewBox="0 0 11 11" fill="none" xmlns="http://www.w3.org/2000/svg">
<path d="M9.99988 4.66666H2.84142L5.59142 1.92499C5.74834 1.76807 5.83649 1.55524 5.83649 1.33333C5.83649 1.11141 5.74834 0.898578 5.59142 0.741658C5.4345 0.584739 5.22167 0.496582 4.99975 0.496582C4.77783 0.496582 4.565 0.584739 4.40808 0.741658L0.241418 4.90832C0.16555 4.98758 0.106079 5.08103 0.0664175 5.18332C-0.0169308 5.38621 -0.0169308 5.61377 0.0664175 5.81666C0.106079 5.91895 0.16555 6.0124 0.241418 6.09166L4.40808 10.2583C4.48555 10.3364 4.57772 10.3984 4.67927 10.4407C4.78082 10.483 4.88974 10.5048 4.99975 10.5048C5.10976 10.5048 5.21868 10.483 5.32023 10.4407C5.42178 10.3984 5.51395 10.3364 5.59142 10.2583C5.66952 10.1809 5.73152 10.0887 5.77383 9.98714C5.81613 9.88559 5.83792 9.77667 5.83792 9.66666C5.83792 9.55665 5.81613 9.44773 5.77383 9.34618C5.73152 9.24463 5.66952 9.15246 5.59142 9.07499L2.84142 6.33332H9.99988C10.2209 6.33332 10.4329 6.24553 10.5891 6.08925C10.7454 5.93297 10.8332 5.721 10.8332 5.49999C10.8332 5.27898 10.7454 5.06702 10.5891 4.91074C10.4329 4.75446 10.2209 4.66666 9.99988 4.66666Z" fill="#130E4A" fill-opacity="0.7"/>
</svg>
