<svg width="32" height="32" viewBox="0 0 32 32" fill="none" xmlns="http://www.w3.org/2000/svg">
<path fill-rule="evenodd" clip-rule="evenodd" d="M30 10H2V22H30V10ZM2 8C0.895431 8 0 8.89543 0 10V22C0 23.1046 0.895431 24 2 24H30C31.1046 24 32 23.1046 32 22V10C32 8.89543 31.1046 8 30 8H2Z" fill="#130E4A" fill-opacity="0.7"/>
<path d="M6.40625 19.2727H5L7.56037 12H9.18679L11.7507 19.2727H10.3445L8.40199 13.4915H8.34517L6.40625 19.2727ZM6.45241 16.4212H10.2876V17.4794H6.45241V16.4212Z" fill="#5A5781"/>
<path d="M22 6H24V26H22V6Z" fill="#5A5781"/>
<path fill-rule="evenodd" clip-rule="evenodd" d="M21 5H25V27H21V5ZM22 6V26H24V6H22Z" fill="white"/>
<path d="M20 5C20 4.44772 20.4477 4 21 4H25C25.5523 4 26 4.44772 26 5C26 5.55228 25.5523 6 25 6H21C20.4477 6 20 5.55228 20 5Z" fill="#5A5781"/>
<path d="M20 27C20 26.4477 20.4477 26 21 26H25C25.5523 26 26 26.4477 26 27C26 27.5523 25.5523 28 25 28H21C20.4477 28 20 27.5523 20 27Z" fill="#5A5781"/>
</svg>
