<svg width="32" height="32" viewBox="0 0 32 32" fill="none" xmlns="http://www.w3.org/2000/svg">
<path d="M0 16C0 14.8954 0.895431 14 2 14H16C17.1046 14 18 14.8954 18 16C18 17.1046 17.1046 18 16 18H2C0.89543 18 0 17.1046 0 16Z" fill="#130E4A" fill-opacity="0.7"/>
<path d="M18 16C18 14.8954 18.8954 14 20 14H30C31.1046 14 32 14.8954 32 16C32 17.1046 31.1046 18 30 18H20C18.8954 18 18 17.1046 18 16Z" fill="#130E4A" fill-opacity="0.25"/>
<path d="M14 16C14 13.7909 15.7909 12 18 12C20.2091 12 22 13.7909 22 16C22 18.2091 20.2091 20 18 20C15.7909 20 14 18.2091 14 16Z" fill="#5A5781"/>
</svg>
