<svg width="32" height="32" viewBox="0 0 32 32" fill="none" xmlns="http://www.w3.org/2000/svg">
<path d="M3 6C3 4.89543 3.89543 4 5 4C6.10457 4 7 4.89543 7 6C7 7.10457 6.10457 8 5 8C3.89543 8 3 7.10457 3 6Z" fill="#130E4A" fill-opacity="0.25"/>
<path d="M9 6C9 4.89543 9.89543 4 11 4H27C28.1046 4 29 4.89543 29 6C29 7.10457 28.1046 8 27 8H11C9.89543 8 9 7.10457 9 6Z" fill="#130E4A" fill-opacity="0.25"/>
<path d="M3 13C3 11.8954 3.89543 11 5 11C6.10457 11 7 11.8954 7 13C7 14.1046 6.10457 15 5 15C3.89543 15 3 14.1046 3 13Z" fill="#130E4A" fill-opacity="0.25"/>
<path d="M9 13C9 11.8954 9.89543 11 11 11H27C28.1046 11 29 11.8954 29 13C29 14.1046 28.1046 15 27 15H11C9.89543 15 9 14.1046 9 13Z" fill="#130E4A" fill-opacity="0.25"/>
<path d="M3 20C3 18.8954 3.89543 18 5 18C6.10457 18 7 18.8954 7 20C7 21.1046 6.10457 22 5 22C3.89543 22 3 21.1046 3 20Z" fill="#130E4A" fill-opacity="0.7"/>
<path d="M3 27C3 25.8954 3.89543 25 5 25C6.10457 25 7 25.8954 7 27C7 28.1046 6.10457 29 5 29C3.89543 29 3 28.1046 3 27Z" fill="#130E4A" fill-opacity="0.25"/>
<path d="M9 20C9 18.8954 9.89543 18 11 18H27C28.1046 18 29 18.8954 29 20C29 21.1046 28.1046 22 27 22H11C9.89543 22 9 21.1046 9 20Z" fill="#130E4A" fill-opacity="0.7"/>
<path d="M9 27C9 25.8954 9.89543 25 11 25H27C28.1046 25 29 25.8954 29 27C29 28.1046 28.1046 29 27 29H11C9.89543 29 9 28.1046 9 27Z" fill="#130E4A" fill-opacity="0.25"/>
</svg>
