<svg width="13" height="10" viewBox="0 0 13 10" fill="none" xmlns="http://www.w3.org/2000/svg">
<path d="M0.7072 6.36385C0.316676 5.97332 0.316676 5.34016 0.7072 4.94963C1.09772 4.55911 1.73089 4.55911 2.12141 4.94963L4.94984 7.77806C5.34036 8.16858 5.34036 8.80175 4.94984 9.19227C4.55932 9.5828 3.92615 9.5828 3.53563 9.19227L0.7072 6.36385Z" fill="white"/>
<path d="M10.6074 0.707108C10.998 0.316584 11.6311 0.316584 12.0217 0.707108C12.4122 1.09763 12.4122 1.7308 12.0217 2.12132L4.94984 9.19227C4.55932 9.5828 3.92615 9.5828 3.53563 9.19227C3.1451 8.80175 3.14585 8.1687 3.53637 7.77818L10.6074 0.707108Z" fill="white"/>
</svg>
