<svg width="16" height="16" viewBox="0 0 16 16" fill="none" xmlns="http://www.w3.org/2000/svg">
<path d="M14.8127 13.6478L11.5695 10.6428C12.5296 9.44577 12.9945 7.92636 12.8687 6.39703C12.7429 4.8677 12.036 3.44468 10.8932 2.42059C9.75043 1.3965 8.25872 0.849167 6.7248 0.89114C5.19087 0.933114 3.73133 1.5612 2.64628 2.64625C1.56122 3.73131 0.933137 5.19085 0.891163 6.72478C0.84919 8.2587 1.39652 9.75041 2.42061 10.8932C3.4447 12.0359 4.86772 12.7429 6.39705 12.8687C7.92638 12.9945 9.44579 12.5296 10.6429 11.5695L13.866 14.5744C13.928 14.6369 14.0017 14.6865 14.083 14.7204C14.1642 14.7542 14.2514 14.7716 14.3394 14.7716C14.4274 14.7716 14.5145 14.7542 14.5958 14.7204C14.677 14.6865 14.7507 14.6369 14.8127 14.5744C14.9329 14.4501 15 14.284 15 14.1111C15 13.9382 14.9329 13.7721 14.8127 13.6478ZM6.90285 11.5695C5.97987 11.5695 5.07762 11.2958 4.31019 10.783C3.54276 10.2702 2.94462 9.54141 2.59141 8.68868C2.2382 7.83596 2.14579 6.89765 2.32585 5.99241C2.50592 5.08716 2.95037 4.25564 3.60302 3.603C4.25566 2.95035 5.08718 2.50589 5.99243 2.32583C6.89767 2.14576 7.83598 2.23818 8.68871 2.59139C9.54143 2.9446 10.2703 3.54274 10.783 4.31017C11.2958 5.0776 11.5695 5.97985 11.5695 6.90283C11.5695 8.1405 11.0779 9.32749 10.2027 10.2027C9.32751 11.0778 8.14053 11.5695 6.90285 11.5695Z" fill="#130E4A" fill-opacity="0.5"/>
</svg>
