<svg width="14" height="9" viewBox="0 0 14 9" fill="none" xmlns="http://www.w3.org/2000/svg">
<path d="M12.8333 6.14504L7.82831 1.19837C7.71986 1.08902 7.59082 1.00223 7.44865 0.942997C7.30648 0.883766 7.15399 0.853271 6.99998 0.853271C6.84597 0.853271 6.69348 0.883766 6.55131 0.942997C6.40914 1.00223 6.2801 1.08902 6.17165 1.19837L1.22498 6.14504C1.11563 6.25349 1.02884 6.38253 0.969607 6.5247C0.910377 6.66687 0.879883 6.81936 0.879883 6.97337C0.879883 7.12738 0.910377 7.27987 0.969607 7.42204C1.02884 7.56421 1.11563 7.69325 1.22498 7.8017C1.44357 8.019 1.73926 8.14096 2.04748 8.14096C2.3557 8.14096 2.65139 8.019 2.86998 7.8017L6.99998 3.6717L11.13 7.8017C11.3473 8.01724 11.6406 8.13875 11.9466 8.14004C12.1002 8.14092 12.2524 8.1115 12.3945 8.05344C12.5367 7.99538 12.666 7.90983 12.775 7.8017C12.8882 7.69715 12.9796 7.57119 13.0439 7.4311C13.1082 7.29101 13.1441 7.13957 13.1495 6.98553C13.155 6.83149 13.1298 6.6779 13.0755 6.53364C13.0213 6.38938 12.9389 6.2573 12.8333 6.14504Z" fill="#130E4A" fill-opacity="0.7"/>
</svg>
